<?xml version="1.0" encoding="utf-8"?>
<!-- Generator: Adobe Illustrator 25.3.1, SVG Export Plug-In . SVG Version: 6.00 Build 0)  -->
<svg version="1.1" id="Layer_1" xmlns="http://www.w3.org/2000/svg" xmlns:xlink="http://www.w3.org/1999/xlink" x="0px" y="0px"
	 viewBox="0 0 202 30" style="enable-background:new 0 0 202 30;" xml:space="preserve">
<style type="text/css">
	.st0{fill:#FFFFFF;}
</style>
<path class="st0" d="M22.7,20.7H11.1l8.5,9.3l13.8-15.1h-16L22.7,20.7z M31.4,0H7.8L0,8.5l7.7,8.4h5.9l-5.3-5.8h28.6l2.4-2.6L31.4,0
	z"/>
<path class="st0" d="M104.8,17.2L96.2,3h-5.9v24.1h5.6v-15l9.2,14.9h5.4V3h-5.6L104.8,17.2z M79.2,27.1H85V3h-5.8V27.1z M61.9,16.4
	L55.9,3h-6.5v24.1H55V12.5L59.9,24h3.8l4.9-11.6v14.6h5.7V3h-6.4L61.9,16.4z M115.7,27.1h16.9v-5h-11v-4.9h8.8v-4.9h-8.8V8h11V3
	h-16.8L115.7,27.1z M150.5,12.3h-7.9V3h-5.8v24.1h5.8v-9.8h7.9v9.8h5.8V3h-5.8V12.3z M183.4,3v5h6.4v19.1h5.8V8h6.4V3L183.4,3z
	 M174.2,21.4c0,0.4-0.2,0.7-0.7,0.7h-5.7c-0.5,0-0.7-0.2-0.7-0.7V3h-5.8v19.4c0,3.1,1.6,4.8,4.8,4.8h9c3.2,0,4.8-1.6,4.8-4.8V3h-5.8
	L174.2,21.4z"/>
</svg>